<?xml version="1.0" encoding="UTF-8"?>
<svg width="100" height="100" viewBox="0 0 100 100" xmlns="http://www.w3.org/2000/svg">
  <defs>
    <filter id="blur">
      <feGaussianBlur in="SourceGraphic" stdDeviation="0.5" />
    </filter>
  </defs>
  <g fill="#D4F1F9" filter="url(#blur)">
    <!-- Main snowflake -->
    <path d="M50 5 L53 15 L50 25 L47 15 Z" />
    <path d="M50 75 L53 85 L50 95 L47 85 Z" />
    <path d="M5 50 L15 53 L25 50 L15 47 Z" />
    <path d="M75 50 L85 53 L95 50 L85 47 Z" />
    
    <!-- Diagonal arms -->
    <path d="M25 25 L30 30 L35 35 L30 30 Z" />
    <path d="M65 65 L70 70 L75 75 L70 70 Z" />
    <path d="M25 75 L30 70 L35 65 L30 70 Z" />
    <path d="M65 35 L70 30 L75 25 L70 30 Z" />
    
    <!-- Center detail -->
    <circle cx="50" cy="50" r="5" />
    <path d="M45 50 L55 50" />
    <path d="M50 45 L50 55" />
    
    <!-- Additional details -->
    <circle cx="35" cy="35" r="2" />
    <circle cx="65" cy="65" r="2" />
    <circle cx="35" cy="65" r="2" />
    <circle cx="65" cy="35" r="2" />
  </g>
  
  <!-- Highlight layer -->
  <g fill="#FFFFFF" fill-opacity="0.5" filter="url(#blur)">
    <circle cx="48" cy="48" r="3" />
    <path d="M30 30 L33 33" />
    <path d="M67 67 L70 70" />
  </g>
</svg>
